<svg xmlns="http://www.w3.org/2000/svg" xmlns:svg="http://www.w3.org/2000/svg" id="svg8" width="24mm" height="24mm" version="1.1" viewBox="0 0 24 24"><metadata id="metadata5"/><g id="layer1" transform="translate(-48.088531,-60.285631)"><g style="font-style:normal;font-weight:400;font-size:10.58333302px;line-height:1.25;font-family:sans-serif;letter-spacing:0;word-spacing:0;fill:#000;fill-opacity:1;stroke:#fff;stroke-width:.5px;paint-order:stroke" id="text3715" aria-label="r."><path style="font-style:normal;font-variant:normal;font-weight:700;font-stretch:normal;font-family:'Fira Code';-inkscape-font-specification:'Fira Code Bold'" id="path817" d="m 55.00077,63.442544 c -0.588718,-0.01704 -1.180779,0.251078 -1.524352,0.735633 -0.163942,0.198364 -0.296316,0.49938 -0.394953,0.683311 -0.101099,-0.416482 -0.202199,-0.832964 -0.303298,-1.249445 -0.671966,0 -1.343932,0 -2.015897,0 0,0.370348 0,0.740695 0,1.111043 0.246841,0 0.493682,0 0.740523,0 0,1.128958 0,2.257916 0,3.386874 -0.246841,0 -0.493682,0 -0.740523,0 0,0.373792 0,0.747585 0,1.121378 1.174777,0 2.349555,0 3.524332,0 0,-0.373793 0,-0.747586 0,-1.121378 -0.37052,0 -0.74104,0 -1.11156,0 0,-0.53623 0,-1.072458 0,-1.608688 0.190282,-0.586609 0.512347,-1.195617 1.085749,-1.482555 0.177384,-0.100666 0.369603,-0.139942 0.305897,0.108125 0,0.278138 0,0.556274 0,0.834412 0.349333,0 0.698666,0 1.047998,0 0.104042,-0.783071 0.208084,-1.566141 0.312126,-2.349211 -0.293304,-0.117433 -0.610556,-0.17161 -0.926042,-0.169499 z"/><circle style="font-style:normal;font-variant:normal;font-weight:700;font-stretch:normal;font-family:'Fira Code';-inkscape-font-specification:'Fira Code Bold'" id="path819" cx="59.493" cy="68.231" r="1.18"/></g><rect style="fill:#30363b;fill-opacity:1;stroke:#20262b;stroke-width:.39559129;stroke-miterlimit:4;stroke-dasharray:none;stroke-opacity:1" id="rect3721" width="10.604" height="12.604" x="61.286" y="71.483"/><g style="font-style:normal;font-weight:400;font-size:10.58333302px;line-height:1.25;font-family:sans-serif;letter-spacing:0;word-spacing:0;fill:#fff;fill-opacity:1;stroke:none;stroke-width:.26458332" id="text3719" aria-label="a"><path style="font-style:normal;font-variant:normal;font-weight:700;font-stretch:normal;font-family:'Fira Code';-inkscape-font-specification:'Fira Code Bold';fill:#fff;stroke-width:.26458332" id="path822" d="m 69.065615,79.143583 q 0,0.3175 0.08467,0.460375 0.08996,0.142875 0.28575,0.216958 l -0.343958,1.100667 q -0.497417,-0.04762 -0.841375,-0.216959 -0.338667,-0.174625 -0.534459,-0.523875 -0.322791,0.386292 -0.825499,0.576792 -0.502709,0.185208 -1.026584,0.185208 -0.867833,0 -1.386416,-0.492125 -0.513292,-0.497416 -0.513292,-1.275291 0,-0.915459 0.714375,-1.412875 0.719667,-0.497417 2.021417,-0.497417 h 0.756708 v -0.211667 q 0,-0.439208 -0.28575,-0.650875 -0.280458,-0.211666 -0.8255,-0.211666 -0.269875,0 -0.693208,0.07937 -0.423334,0.07408 -0.846667,0.216958 l -0.386292,-1.11125 q 0.545042,-0.206375 1.132417,-0.312208 0.592667,-0.105834 1.058333,-0.105834 1.254125,0 1.852083,0.513292 0.60325,0.508 0.60325,1.471083 z m -2.624666,0.60325 q 0.269875,0 0.566208,-0.15875 0.296334,-0.164042 0.449792,-0.460375 v -0.910167 h -0.41275 q -0.6985,0 -1.026583,0.216958 -0.328084,0.211667 -0.328084,0.624417 0,0.322792 0.195792,0.508 0.201083,0.179917 0.555625,0.179917 z"/></g></g></svg>